#!OML:ASF I:\golf\golf\golf 2\Subject 1\2002-09-07\Subject1.ASF
:FULLY-SPECIFIED
:DEGREES
294
root 2.51818 16.3312 -2.8269 47.7584 -3.25164 0.943424
lowerback 42.4986 10.5973 3.149
upperback 18.565 13.4895 8.66403
thorax -0.522008 5.93088 2.75209
lowerneck -9.43546 -10.3345 -4.59584
upperneck 0.215658 -13.3849 -6.4285
head 1.48942 -6.9181 -1.8167
rclavicle 9.54166e-015 2.8625e-014
rhumerus 56.8937 -19.3216 -49.7816
rradius 24.3382
rwrist 8.78789
rhand -44.2682 28.4529
rfingers 7.12502
rthumb -17.0793 -0.816399
lclavicle 9.54166e-015 2.8625e-014
lhumerus 11.0244 -61.7576 57.377
lradius 89.7215
lwrist -26.9289
lhand -48.6344 14.8753
lfingers 7.12502
lthumb -21.2779 43.7273
rfemur -82.1396 -19.7749 27.9509
rtibia 60.4718
rfoot -20.5195 -0.0651233
rtoes -11.1472
lfemur -88.4671 5.16287 -33.5926
ltibia 52.8591
lfoot -7.5176 -22.1443
ltoes 9.66798
295
root 2.53088 16.3272 -2.82535 48.088 -3.01278 1.05874
lowerback 42.0817 10.5041 3.26691
upperback 18.5587 13.4285 8.73025
thorax -0.407971 5.91654 2.82234
lowerneck -9.36635 -10.3464 -4.61432
upperneck 0.115869 -13.4141 -6.37486
head 1.44876 -6.92832 -1.78894
rclavicle -4.45278e-014 -1.11319e-014
rhumerus 56.7377 -19.3491 -49.4236
rradius 24.2856
rwrist 8.82984
rhand -44.2478 28.2657
rfingers 7.12502
rthumb -17.0597 -1.0052
lclavicle -4.45278e-014 -1.11319e-014
lhumerus 11.1104 -61.8418 57.4808
lradius 89.656
lwrist -26.8979
lhand -48.4542 14.8695
lfingers 7.12502
lthumb -21.1048 43.7409
rfemur -82.5162 -19.9069 28.0544
rtibia 60.491
rfoot -20.5052 -0.178493
rtoes -11.1746
lfemur -88.741 4.80197 -33.5415
ltibia 52.7737
lfoot -7.4762 -22.1039
ltoes 9.42935
296
root 2.54249 16.3278 -2.8318 48.3656 -2.58084 1.26587
lowerback 41.7976 10.2857 3.54589
upperback 18.5019 13.2905 8.8263
thorax -0.358216 5.87047 2.85984
lowerneck -9.27848 -10.3656 -4.57462
upperneck -0.0289246 -13.4654 -6.44757
head 1.37704 -6.95055 -1.80591
rclavicle 9.54166e-015 6.04305e-014
rhumerus 56.5205 -19.347 -49.0239
rradius 24.24
rwrist 9.09872
rhand -44.388 27.8829
rfingers 7.12502
rthumb -17.1947 -1.37635
lclavicle 9.54166e-015 6.04305e-014
lhumerus 11.3503 -61.9958 57.3892
lradius 89.4299
lwrist -26.7744
lhand -48.5513 14.8751
lfingers 7.12502
lthumb -21.1981 43.7361
rfemur -82.8351 -20.1607 28.0971
rtibia 60.5287
rfoot -20.467 -0.144539
rtoes -9.47027
lfemur -88.9488 4.31084 -33.4761
ltibia 52.6598
lfoot -7.4324 -22.1668
ltoes 8.98355
297
root 2.55391 16.3323 -2.8256 48.6043 -2.48122 1.1803
lowerback 41.4697 10.2957 3.55478
upperback 18.5122 13.302 8.88302
thorax -0.269075 5.87979 2.93818
lowerneck -9.31393 -10.3732 -4.55222
upperneck -0.0771869 -13.4813 -6.49079
head 1.36249 -6.95933 -1.82322
rclavicle 6.36111e-015 1.59028e-014
rhumerus 56.3833 -19.3138 -48.7413
rradius 24.3023
rwrist 9.16923
rhand -44.2763 27.5321
rfingers 7.12502
rthumb -17.0872 -1.7365
lclavicle 6.36111e-015 1.59028e-014
lhumerus 11.382 -61.9923 57.446
lradius 89.3144
lwrist -26.636
lhand -48.2875 14.137
lfingers 7.12502
lthumb -20.9447 43.0262
rfemur -82.9807 -20.0544 28.1424
rtibia 60.4868
rfoot -20.4845 -0.083465
rtoes -8.1259
lfemur -89.1336 4.24097 -33.3734
ltibia 52.5584
lfoot -7.43871 -22.166
ltoes 8.8357
298
root 2.55795 16.3457 -2.81881 48.5457 -2.30723 1.18676
lowerback 41.5231 10.3099 3.5993
upperback 18.518 13.347 9.01316
thorax -0.305358 5.89455 3.02816
lowerneck -9.29983 -10.42 -4.54382
upperneck -0.0448602 -13.5449 -6.4975
head 1.36852 -6.9918 -1.82953
rclavicle 9.54166e-015 -3.18055e-015
rhumerus 56.1315 -19.2923 -48.2305
rradius 24.4797
rwrist 8.7049
rhand -43.9159 27.2056
rfingers 7.12502
rthumb -16.7402 -2.0927
lclavicle 9.54166e-015 -3.18055e-015
lhumerus 11.3424 -62.0254 57.6434
lradius 89.4077
lwrist -26.609
lhand -48.1008 13.6462
lfingers 7.12502
lthumb -20.7653 42.5551
rfemur -82.7607 -20.0652 28.083
rtibia 60.4278
rfoot -20.5747 -0.388662
rtoes -8.90255
lfemur -88.9481 4.17146 -33.2761
ltibia 52.4438
lfoot -7.45155 -22.1819
ltoes 8.70067
299
root 2.5626 16.3568 -2.81258 48.4908 -2.13604 1.2209
lowerback 41.5976 10.297 3.68492
upperback 18.5108 13.3741 9.11555
thorax -0.345593 5.90452 3.07483
lowerneck -9.27616 -10.4716 -4.48853
upperneck 0.0287131 -13.6166 -6.58725
head 1.37737 -7.03038 -1.86991
rclavicle -6.36111e-015 -3.18055e-015
rhumerus 55.8755 -19.2423 -47.6994
rradius 24.549
rwrist 8.26345
rhand -43.6364 26.8725
rfingers 7.12502
rthumb -16.4711 -2.44832
lclavicle -6.36111e-015 -3.18055e-015
lhumerus 11.4665 -62.1233 57.6792
lradius 89.4743
lwrist -26.5266
lhand -48.2774 13.6957
lfingers 7.12502
lthumb -20.935 42.5859
rfemur -82.5621 -20.0928 27.9847
rtibia 60.3828
rfoot -20.5977 -0.594497
rtoes -8.81064
lfemur -88.7537 4.05281 -33.1675
ltibia 52.3367
lfoot -7.57526 -22.1491
ltoes 8.24087
300
root 2.57066 16.3586 -2.80605 48.6272 -2.14594 1.23
lowerback 41.4452 10.3569 3.6028
upperback 18.508 13.416 9.14578
thorax -0.332832 5.92126 3.14
lowerneck -9.28726 -10.5253 -4.46859
upperneck 0.0510523 -13.6902 -6.62839
head 1.38102 -7.06879 -1.89016
rclavicle 1.33583e-013 -6.20208e-014
rhumerus 55.6806 -19.2368 -47.3519
rradius 24.5201
rwrist 8.19853
rhand -43.3566 26.7091
rfingers 7.12502
rthumb -16.2018 -2.6338
lclavicle 1.33583e-013 -6.20208e-014
lhumerus 11.7167 -62.2061 57.5642
lradius 89.4215
lwrist -26.353
lhand -48.1444 13.4186
lfingers 7.12502
lthumb -20.8071 42.323
rfemur -82.6647 -20.0322 27.9125
rtibia 60.4382
rfoot -20.6249 -0.640899
rtoes -8.24088
lfemur -88.8351 3.98282 -33.1532
ltibia 52.3214
lfoot -7.67811 -22.1123
ltoes 8.19101
301
root 2.57893 16.3511 -2.80847 48.885 -1.86245 1.47586
lowerback 41.2016 10.229 3.71099
upperback 18.4436 13.3224 9.22757
thorax -0.332663 5.88638 3.21991
lowerneck -9.25209 -10.5856 -4.564
upperneck 0.0217668 -13.7677 -6.56224
head 1.37486 -7.10519 -1.85476
rclavicle 1.04958e-013 -1.90833e-014
rhumerus 55.4335 -19.2706 -46.96
rradius 24.5828
rwrist 8.28571
rhand -43.0681 26.4992
rfingers 7.12502
rthumb -15.9239 -2.8662
lclavicle 1.04958e-013 -1.90833e-014
lhumerus 12.0902 -62.332 57.3993
lradius 89.3006
lwrist -26.3025
lhand -47.4109 13.3851
lfingers 7.12502
lthumb -20.1023 42.3651
rfemur -83.0173 -20.2845 27.9191
rtibia 60.5481
rfoot -20.6418 -0.844567
rtoes -8.6788
lfemur -89.0489 3.51543 -33.1163
ltibia 52.2929
lfoot -7.4947 -22.1083
ltoes 8.87822
302
root 2.59324 16.2971 -2.81686 49.7821 -1.52136 1.52928
lowerback 39.8492 10.0173 3.8845
upperback 18.5153 13.1001 9.24207
thorax 0.027837 5.82983 3.27959
lowerneck -9.22714 -10.5746 -4.73755
upperneck -0.0280308 -13.7389 -6.43971
head 1.37501 -7.08688 -1.78639
rclavicle -6.04305e-014 -2.22639e-014
rhumerus 55.3067 -19.1178 -46.7191
rradius 24.6798
rwrist 8.38256
rhand -42.9065 26.0793
rfingers 7.12502
rthumb -15.7683 -3.29845
lclavicle -6.04305e-014 -2.22639e-014
lhumerus 12.1668 -62.3107 57.354
lradius 89.2491
lwrist -26.318
lhand -46.2769 14.2941
lfingers 7.12502
lthumb -19.012 43.3849
rfemur -84.275 -20.3514 28.385
rtibia 60.7613
rfoot -20.5056 -0.982421
rtoes -9.20634
lfemur -90.1839 2.98016 -32.9459
ltibia 52.3978
lfoot -7.18546 -22.0848
ltoes 9.34652
303
root 2.59723 16.3022 -2.82083 49.803 -1.32151 1.65673
lowerback 39.8598 9.94536 3.92033
upperback 18.4675 13.0468 9.3231
thorax -0.040644 5.80278 3.35573
lowerneck -9.1921 -10.6149 -4.78321
upperneck -0.0507218 -13.7936 -6.49371
head 1.35971 -7.11389 -1.79466
rclavicle 9.85972e-014 6.04305e-014
rhumerus 55.0776 -19.0052 -46.3603
rradius 24.732
rwrist 8.50987
rhand -42.8066 25.7079
rfingers 7.12502
rthumb -15.6721 -3.67734
lclavicle 9.85972e-014 6.04305e-014
lhumerus 12.1875 -62.3693 57.4169
lradius 89.2287
lwrist -26.2722
lhand -47.5393 14.8672
lfingers 7.12502
lthumb -20.2257 43.8342
rfemur -84.2723 -20.4844 28.3235
rtibia 60.7757
rfoot -20.5174 -1.12944
rtoes -9.33556
lfemur -90.1377 2.76206 -32.8987
ltibia 52.3331
lfoot -7.07607 -22.1567
ltoes 9.56233
304
root 2.60199 16.3123 -2.81306 49.7189 -1.40505 1.56185
lowerback 39.9298 10.0224 3.78104
upperback 18.4952 13.0915 9.35011
thorax -0.0679315 5.81186 3.42792
lowerneck -9.25037 -10.6138 -4.80407
upperneck 0.00899147 -13.7797 -6.52656
head 1.38883 -7.11014 -1.80822
rclavicle -1.145e-013 -4.77083e-015
rhumerus 55.0116 -18.9359 -46.2494
rradius 24.7448
rwrist 8.8114
rhand -42.5641 25.4173
rfingers 7.12502
rthumb -15.4385 -3.98616
lclavicle -1.145e-013 -4.77083e-015
lhumerus 12.0269 -62.3209 57.5629
lradius 89.1998
lwrist -26.2809
lhand -48.3058 15.0733
lfingers 7.12502
lthumb -20.9622 43.9605
rfemur -84.0463 -20.3492 28.2145
rtibia 60.7019
rfoot -20.6192 -1.18513
rtoes -9.52543
lfemur -89.9846 2.89184 -32.8545
ltibia 52.2873
lfoot -7.09503 -22.1546
ltoes 9.68664
